<svg xmlns="http://www.w3.org/2000/svg" version="1.1" xmlns:xlink="http://www.w3.org/1999/xlink" xmlns:svgjs="http://svgjs.dev/svgjs" width="1440" height="560" preserveAspectRatio="none" viewBox="0 0 1440 560"><g mask="url(&quot;#SvgjsMask1007&quot;)" fill="none"><rect width="1440" height="560" x="0" y="0" fill="rgba(23, 25, 35, 1)"></rect><path d="M -808.3102929303741,477 C -712.31,403.6 -520.31,107.8 -328.3102929303741,110 C -136.31,112.2 -40.31,493.6 151.6897070696259,488 C 343.69,482.4 439.69,81.6 631.6897070696259,82 C 823.69,82.4 950.03,461.6 1111.689707069626,490 C 1273.35,518.4 1374.34,277.2 1440,224" stroke="rgba(229, 62, 62, 0.41)" stroke-width="2"></path><path d="M -572.0210195945398,437 C -476.02,376.8 -284.02,143.4 -92.02101959453981,136 C 99.98,128.6 195.98,410.4 387.9789804054602,400 C 579.98,389.6 675.98,106.4 867.9789804054602,84 C 1059.98,61.6 1233.57,285.4 1347.97898040546,288 C 1462.38,290.6 1421.6,135.2 1440,97" stroke="rgba(229, 62, 62, 0.41)" stroke-width="2"></path><path d="M -260.90812475471785,111 C -164.91,165 27.09,348.2 219.09187524528218,381 C 411.09,413.8 507.09,269.8 699.0918752452822,275 C 891.09,280.2 987.09,406.8 1179.0918752452822,407 C 1371.09,407.2 1606.91,276.4 1659.0918752452822,276 C 1711.27,275.6 1483.82,379.2 1440,405" stroke="rgba(229, 62, 62, 0.41)" stroke-width="2"></path><path d="M -474.7038011813923,182 C -378.7,238.2 -186.7,448 5.296198818607714,463 C 197.3,478 293.3,271.8 485.2961988186077,257 C 677.3,242.2 773.3,423 965.2961988186078,389 C 1157.3,355 1350.36,80.2 1445.2961988186078,87 C 1540.24,93.8 1441.06,355.8 1440,423" stroke="rgba(229, 62, 62, 0.41)" stroke-width="2"></path></g><defs><mask id="SvgjsMask1007"><rect width="1440" height="560" fill="#ffffff"></rect></mask></defs></svg>